<?xml version="1.0" encoding="utf-8"?>
<!-- Generator: Adobe Illustrator 27.3.1, SVG Export Plug-In . SVG Version: 6.00 Build 0)  -->
<svg version="1.1" id="Warstwa_1" xmlns="http://www.w3.org/2000/svg" xmlns:xlink="http://www.w3.org/1999/xlink" x="0px" y="0px"
	 viewBox="0 0 100 22" style="enable-background:new 0 0 100 22;" xml:space="preserve">
<style type="text/css">
	.st0{fill:#FFFFFF;}
	.st1{fill:url(#SVGID_1_);}
</style>
<g>
	<path class="st0" d="M33.7,0h3v5.2c0.1-0.2,0.3-0.3,0.5-0.5c0.2-0.2,0.5-0.4,0.8-0.5C38.2,4,38.6,3.9,39,3.8
		c0.4-0.1,0.9-0.2,1.4-0.2c0.8,0,1.5,0.1,2.1,0.4c0.6,0.2,1.1,0.6,1.5,1c0.4,0.4,0.7,0.9,0.9,1.5c0.2,0.6,0.3,1.2,0.3,1.9v7.4h-3
		V9.1c0-0.9-0.2-1.6-0.7-2.1c-0.5-0.5-1.1-0.7-1.9-0.7c-0.4,0-0.8,0.1-1.2,0.2c-0.4,0.1-0.7,0.3-0.9,0.5S37,7.6,36.9,7.9
		c-0.2,0.3-0.2,0.7-0.2,1.2v6.7h-3V0z"/>
	<path class="st0" d="M46.1,3.9h2.2V0.6L51.2,0v3.9H55v2.4h-3.8v5.1c0,0.8,0.2,1.3,0.7,1.6c0.5,0.3,1.1,0.4,1.8,0.4
		c0.2,0,0.3,0,0.5,0c0.2,0,0.3,0,0.5-0.1v2.5c-0.2,0.1-0.5,0.1-0.8,0.1c-0.3,0-0.5,0.1-0.8,0.1c-0.7,0-1.4-0.1-2-0.3
		c-0.6-0.2-1.1-0.5-1.5-0.8c-0.4-0.4-0.7-0.8-1-1.4c-0.2-0.6-0.4-1.3-0.4-2.1V6.3h-2.2V3.9z"/>
	<path class="st0" d="M83.1,3.9h2.6l0.2,1.4C86,5.1,86.2,5,86.4,4.8c0.2-0.2,0.5-0.4,0.8-0.6c0.3-0.2,0.7-0.3,1.1-0.4
		c0.4-0.1,0.9-0.2,1.4-0.2c0.8,0,1.5,0.1,2.2,0.4c0.6,0.2,1.2,0.6,1.6,1c0.4,0.4,0.8,1,1,1.6c0.2,0.6,0.3,1.3,0.3,2v7.2h-3V9.2
		c0-0.9-0.2-1.6-0.7-2.1c-0.5-0.5-1.2-0.7-2-0.7c-0.4,0-0.8,0.1-1.2,0.2c-0.4,0.1-0.7,0.3-1,0.6c-0.3,0.2-0.5,0.5-0.7,0.9
		c-0.2,0.4-0.2,0.8-0.2,1.2L86,15.8h-3V3.9z"/>
	<path class="st0" d="M12.7,2.6L12.7,2.6l0,2.2h0c2.7,0,4.9-2.2,4.9-4.8h-2.3C15.3,1.4,14.1,2.6,12.7,2.6z"/>
	<ellipse class="st0" cx="98.2" cy="14.3" rx="1.8" ry="1.8"/>
	<path class="st0" d="M25.5,3.6c-3.5,0-6.3,2.8-6.3,6.2c0,3.4,2.8,6.2,6.3,6.2c3.5,0,6.3-2.8,6.3-6.2C31.8,6.4,29,3.6,25.5,3.6z
		 M25.5,13.5c-2.1,0-3.8-1.7-3.8-3.7c0-2.1,1.7-3.7,3.8-3.7c2.1,0,3.8,1.7,3.8,3.7C29.3,11.9,27.6,13.5,25.5,13.5z"/>
	<path class="st0" d="M14.3,6.6v9.2h3V5.1C16.4,5.8,15.4,6.3,14.3,6.6z"/>
	<g>
		<path class="st0" d="M31.2,3.2c-0.5-0.5-1.3-0.5-1.8,0l0,0l0,0c-0.5,0.5-0.5,1.3,0,1.7s1.3,0.5,1.8,0l0,0l0,0
			C31.7,4.5,31.7,3.7,31.2,3.2z"/>
	</g>
	<path class="st0" d="M31.8,15.8h-2.5c0,0,0,0,0,0c0,2.1-1.7,3.7-3.8,3.7c0,0,0,0,0,0V22c0,0,0,0,0,0C29,22,31.8,19.2,31.8,15.8
		C31.8,15.8,31.8,15.8,31.8,15.8z"/>
	<linearGradient id="SVGID_1_" gradientUnits="userSpaceOnUse" x1="18.7811" y1="16.551" x2="24.9922" y2="20.2933">
		<stop  offset="0" style="stop-color:#FFFFFF;stop-opacity:0"/>
		<stop  offset="1" style="stop-color:#FFFFFF"/>
	</linearGradient>
	<path class="st1" d="M25.5,22v-2.5c0,0,0,0,0,0c-2.1,0-3.8-1.7-3.8-3.7c0,0,0,0,0,0h-2.5c0,0,0,0,0,0C19.1,19.2,22,22,25.5,22
		C25.5,22,25.5,22,25.5,22z"/>
	<path class="st0" d="M12.6,10.7c0-0.1,0-0.3,0.1-0.4c0-0.1,0-0.2,0-0.3c0-0.1,0-0.1,0-0.2c0-0.2,0-0.4,0-0.6c0-0.2,0-0.3-0.1-0.5
		c0,0,0,0,0-0.1h0C12,5.8,9.4,3.6,6.3,3.6C2.8,3.6,0,6.4,0,9.8S2.8,16,6.3,16c2,0,3.8-0.9,4.9-2.3l-2.2-1.3
		c-0.7,0.7-1.7,1.1-2.7,1.1c-1.7,0-3.1-1.1-3.6-2.6H10h0.3h2.3C12.6,10.9,12.6,10.9,12.6,10.7L12.6,10.7
		C12.6,10.8,12.6,10.8,12.6,10.7z M6.3,6.1C8,6.1,9.5,7.2,10,8.7H2.7C3.2,7.2,4.6,6.1,6.3,6.1z"/>
	<path class="st0" d="M67.9,10.7c0-0.1,0-0.3,0.1-0.4c0-0.1,0-0.2,0-0.3c0-0.1,0-0.1,0-0.2c0-0.2,0-0.4,0-0.6c0-0.2,0-0.3-0.1-0.5
		c0,0,0,0,0-0.1h0c-0.5-2.9-3.1-5.1-6.2-5.1c-3.5,0-6.3,2.8-6.3,6.2s2.8,6.2,6.3,6.2c2,0,3.8-0.9,4.9-2.3l-2.2-1.3
		c-0.7,0.7-1.7,1.1-2.7,1.1c-1.7,0-3.1-1.1-3.6-2.6h7.2h0.3h2.3C67.9,10.9,67.9,10.9,67.9,10.7L67.9,10.7
		C67.9,10.8,67.9,10.8,67.9,10.7z M61.6,6.1c1.7,0,3.1,1.1,3.6,2.6H58C58.5,7.2,59.9,6.1,61.6,6.1z"/>
	<path class="st0" d="M81.3,10.7c0-0.1,0-0.3,0.1-0.4c0-0.1,0-0.2,0-0.3c0-0.1,0-0.1,0-0.2c0-0.2,0-0.4,0-0.6c0-0.2,0-0.3-0.1-0.5
		c0,0,0,0,0-0.1h0c-0.5-2.9-3.1-5.1-6.2-5.1c-3.5,0-6.3,2.8-6.3,6.2s2.8,6.2,6.3,6.2c2,0,3.8-0.9,4.9-2.3l-2.2-1.3
		c-0.7,0.7-1.7,1.1-2.7,1.1c-1.7,0-3.1-1.1-3.6-2.6h7.2H79h2.3C81.3,10.9,81.3,10.9,81.3,10.7L81.3,10.7
		C81.3,10.8,81.3,10.8,81.3,10.7z M75.1,6.1c1.7,0,3.1,1.1,3.6,2.6h-7.2C71.9,7.2,73.4,6.1,75.1,6.1z"/>
</g>
</svg>
