<svg 
 xmlns="http://www.w3.org/2000/svg"
 xmlns:xlink="http://www.w3.org/1999/xlink"
 width="137px" height="20px">
<path fill-rule="evenodd"  fill="rgb(0, 0, 0)"
 d="M128.555,19.989 C125.787,19.989 123.711,18.871 122.577,17.507 L122.521,17.507 L122.521,19.525 L118.536,19.525 L118.536,-0.004 L122.577,-0.004 L122.577,6.488 C124.099,4.715 126.313,3.870 128.832,3.870 C133.813,3.870 136.996,7.470 136.996,11.888 C136.996,16.962 133.011,19.989 128.555,19.989 ZM127.670,7.524 C124.708,7.524 122.493,9.379 122.493,11.943 C122.493,14.534 124.763,16.334 127.670,16.334 C130.658,16.334 132.790,14.507 132.790,11.943 C132.790,9.406 130.658,7.524 127.670,7.524 ZM111.649,17.534 L111.566,17.534 C110.570,19.034 108.411,19.989 105.836,19.989 C102.598,19.989 99.636,18.543 99.636,15.515 C99.636,12.543 102.516,11.560 105.754,10.988 C108.716,10.470 111.373,10.361 111.373,8.916 C111.373,7.852 110.044,6.979 108.024,6.979 C106.169,6.979 104.646,7.688 104.038,9.406 L100.218,8.206 C101.353,5.015 104.730,3.870 108.106,3.870 C112.507,3.870 115.469,5.806 115.469,9.270 L115.469,14.780 C115.469,17.234 115.690,18.298 116.050,19.525 L112.036,19.525 C111.732,18.871 111.649,18.216 111.649,17.534 ZM111.400,12.516 C110.210,12.925 109.158,13.170 107.553,13.443 C106.113,13.716 104.038,14.152 104.038,15.462 C104.038,16.498 105.228,17.043 106.861,17.043 C109.656,17.043 111.400,15.352 111.400,13.798 L111.400,12.516 ZM93.561,-0.004 L97.602,-0.004 L97.602,19.525 L93.561,19.525 L93.561,-0.004 ZM81.995,19.989 C76.432,19.989 72.529,16.689 72.529,11.943 C72.529,7.224 76.432,3.870 81.995,3.870 C87.558,3.870 91.461,7.224 91.461,11.943 C91.461,16.689 87.558,19.989 81.995,19.989 ZM81.995,7.524 C78.923,7.524 76.736,9.352 76.736,11.943 C76.736,14.507 78.923,16.334 81.995,16.334 C85.095,16.334 87.226,14.507 87.226,11.943 C87.226,9.325 85.095,7.524 81.995,7.524 ZM68.406,19.989 C62.621,19.989 62.621,16.252 62.621,14.670 L62.621,7.770 C61.403,7.770 60.186,7.770 58.968,7.770 L58.968,4.306 L62.621,4.306 C62.621,2.887 62.621,1.442 62.621,-0.004 L66.663,-0.004 L66.663,4.306 C68.379,4.306 70.122,4.306 71.838,4.306 L71.838,7.770 L66.663,7.770 C66.663,9.624 66.663,11.452 66.663,13.306 C66.663,14.752 66.663,16.526 69.209,16.526 C70.067,16.526 71.008,16.307 71.838,15.979 L71.838,19.416 C70.897,19.826 69.652,19.989 68.406,19.989 ZM53.586,10.634 C55.357,11.016 58.734,11.780 58.734,15.052 C58.734,18.053 55.911,19.989 51.593,19.989 C47.552,19.989 44.535,18.271 43.649,15.707 L47.414,14.562 C48.272,16.252 50.016,16.852 51.565,16.852 C52.756,16.852 54.417,16.498 54.417,15.407 C54.417,14.288 52.811,13.961 51.510,13.634 L49.573,13.170 C47.441,12.652 44.507,11.424 44.507,8.643 C44.507,5.724 47.579,3.870 51.261,3.870 C54.832,3.870 57.406,5.533 58.181,7.715 L54.444,8.861 C53.974,7.879 52.894,6.979 51.095,6.979 C49.628,6.979 48.576,7.551 48.576,8.397 C48.576,9.488 50.569,9.980 52.064,10.307 L53.586,10.634 ZM38.277,17.534 L38.195,17.534 C37.198,19.034 35.039,19.989 32.466,19.989 C29.227,19.989 26.266,18.543 26.266,15.515 C26.266,12.543 29.143,11.560 32.382,10.988 C35.343,10.470 38.000,10.361 38.000,8.916 C38.000,7.852 36.672,6.979 34.652,6.979 C32.797,6.979 31.275,7.688 30.666,9.406 L26.847,8.206 C27.981,5.015 31.358,3.870 34.735,3.870 C39.135,3.870 42.097,5.806 42.097,9.270 L42.097,14.780 C42.097,17.234 42.319,18.298 42.678,19.525 L38.665,19.525 C38.361,18.871 38.277,18.216 38.277,17.534 ZM38.028,12.516 C36.839,12.925 35.786,13.170 34.181,13.443 C32.742,13.716 30.666,14.152 30.666,15.462 C30.666,16.498 31.856,17.043 33.489,17.043 C36.285,17.043 38.028,15.352 38.028,13.798 L38.028,12.516 ZM20.189,-0.004 L24.231,-0.004 L24.231,19.525 L20.189,19.525 L20.189,-0.004 ZM9.440,16.553 C11.654,16.553 13.453,15.707 14.339,14.125 L18.103,15.571 C16.829,18.053 13.674,19.989 9.467,19.989 C4.070,19.989 0.001,16.825 0.001,11.997 C0.001,7.306 3.848,3.870 9.190,3.870 C13.508,3.870 17.992,6.379 17.992,11.970 L17.992,13.007 L4.070,13.007 C4.402,15.297 6.671,16.553 9.440,16.553 ZM13.896,10.388 C13.619,8.043 11.404,7.143 9.163,7.143 C6.478,7.143 4.762,8.479 4.263,10.388 L13.896,10.388 Z"/>
</svg>